<svg width="202" height="202" viewBox="0 0 202 202" fill="none" xmlns="http://www.w3.org/2000/svg">
<path d="M101 0L114.101 47.8487L147.937 11.5689L137.301 60.025L184.121 43.6255L152.185 81.5882L201.264 88.8258L155.343 107.598L195.437 136.815L146.052 132.097L167.975 176.6L126.44 149.472L125.171 199.065L101 155.742L76.8291 199.065L75.5601 149.472L34.0246 176.6L55.9482 132.097L6.56336 136.815L46.6571 107.598L0.736404 88.8258L49.8153 81.5882L17.8786 43.6255L64.6993 60.025L54.063 11.5689L87.8994 47.8487L101 0Z" fill="#8AC0FF"/>
<ellipse cx="102.554" cy="102.554" rx="24.8615" ry="24.8615" transform="rotate(180 102.554 102.554)" fill="black"/>
</svg>
