<svg width="62" height="42" viewBox="0 0 62 42" fill="none" xmlns="http://www.w3.org/2000/svg">
<path d="M61.7224 20.6606C61.7224 20.6606 47.9948 41.3213 31.0609 41.3213C14.127 41.3213 0.399353 20.6606 0.399353 20.6606C0.399353 20.6606 14.127 0 31.0609 0C47.9948 0 61.7224 20.6606 61.7224 20.6606Z" fill="#8AC0FF"/>
<ellipse cx="38.6006" cy="21" rx="12.0636" ry="11" transform="rotate(180 38.6006 21)" fill="#F5F3F3"/>
<ellipse cx="38.6006" cy="20.5" rx="7.03708" ry="6.5" transform="rotate(180 38.6006 20.5)" fill="black"/>
<path d="M60.7561 19.9263H60.7334H60.7093H60.685H60.6604H60.6355H60.6104H60.585H60.5593H60.5333H60.5071H60.4806H60.4538H60.4267H60.3994H60.3718H60.344H60.3158H60.2874H60.2588H60.2298H60.2006H60.1712H60.1414H60.1114H60.0812H60.0506H60.0198H59.9888H59.9575H59.9259H59.894H59.8619H59.8295H59.7969H59.764H59.7309H59.6974H59.6638H59.6298H59.5957H59.5612H59.5265H59.4916H59.4563H59.4209H59.3851H59.3491H59.3129H59.2764H59.2397H59.2027H59.1654H59.1279H59.0902H59.0522H59.0139H58.9754H58.9366H58.8976H58.8584H58.8189H58.7791H58.7391H58.6989H58.6584H58.6177H58.5767H58.5354H58.494H58.4523H58.4103H58.3681H58.3256H58.283H58.24H58.1969H58.1534H58.1098H58.0659H58.0218H57.9774H57.9328H57.8879H57.8428H57.7975H57.752H57.7062H57.6601H57.6139H57.5674H57.5206H57.4737H57.4265H57.379H57.3314H57.2835H57.2353H57.187H57.1384H57.0896H57.0405H56.9912H56.9417H56.892H56.842H56.7918H56.7414H56.6908H56.6399H56.5888H56.5375H56.4859H56.4342H56.3822H56.33H56.2775H56.2249H56.172H56.1189H56.0656H56.012H55.9582H55.9043H55.8501H55.7956H55.741H55.6862H55.6311H55.5758H55.5203H55.4646H55.4086H55.3525H55.2961H55.2396H55.1828H55.1258H55.0686H55.0111H54.9535H54.8956H54.8376H54.7793H54.7208H54.6622H54.6033H54.5442H54.4848H54.4253H54.3656H54.3057H54.2455H54.1852H54.1247H54.0639H54.003H53.9418H53.8805H53.8189H53.7571H53.6952H53.633H53.5706H53.5081H53.4453H53.3824H53.3192H53.2558H53.1923H53.1285H53.0646H53.0004H52.9361H52.8715H52.8068H52.7419H52.6768H52.6115H52.5459H52.4802H52.4144H52.3483H52.282H52.2155H52.1489H52.082H52.015H51.9478H51.8804H51.8128H51.745H51.677H51.6089H51.5405H51.472H51.4033H51.3344H51.2653H51.196H51.1266H51.057H50.9872H50.9172H50.847H50.7766H50.7061H50.6354H50.5645H50.4934H50.4222H50.3507H50.2791H50.2073H50.1354H50.0633H49.9909H49.9185H49.8458H49.773H49.7H49.6268H49.5534H49.4799H49.4062H49.3323H49.2583H49.1841H49.1097H49.0351H48.9604H48.8855H48.8105H48.7353H48.6599H48.5843H48.5086H48.4327H48.3567H48.2804H48.2041H48.1275H48.0508H47.9739H47.8969H47.8197H47.7424H47.6648H47.5872H47.5093H47.4313H47.3532H47.2749H47.1964H47.1178H47.039H46.96H46.8809H46.8017H46.7223H46.6427H46.563H46.4831H46.4031H46.3229H46.2426H46.1621H46.0814H46.0007H45.9197H45.8386H45.7574H45.676H45.5945H45.5128H45.431H45.349H45.2669H45.1846H45.1022H45.0196H44.9369H44.8541H44.7711H44.6879H44.6046H44.5212H44.4377H44.3539H44.2701H44.1861H44.102H44.0177H43.9333H43.8488H43.7641H43.6792H43.5943H43.5092H43.424H43.3386H43.2531H43.1674H43.0817H42.9958H42.9097H42.8235H42.7372H42.6508H42.5642H42.4775H42.3907H42.3037H42.2166H42.1294H42.042H41.9546H41.867H41.7792H41.6914H41.6034H41.5153H41.427H41.3386H41.2502H41.1615H41.0728H40.9839H40.895H40.8058H40.7166H40.6273H40.5378H40.4482H40.3585H40.2687H40.1787H40.0886H39.9985H39.9081H39.8177H39.7272H39.6365H39.5458H39.4549H39.3639H39.2728H39.1815H39.0902H38.9987H38.9072H38.8155H38.7237H38.6318H38.5398H38.4477H38.3554H38.2631H38.1706H38.0781H37.9854H37.8926H37.7998H37.7068H37.6137H37.5205H37.4272H37.3338H37.2403H37.1467H37.0529H36.9591H36.8652H36.7712H36.6771H36.5828H36.4885H36.3941H36.2996H36.2049H36.1102H36.0154H35.9205H35.8255H35.7304H35.6351H35.5398H35.4444H35.349H35.2534H35.1577H35.0619H34.9661H34.8701H34.7741H34.6779H34.5817H34.4854H34.389H34.2925H34.1959H34.0992H34.0024H33.9056H33.8086H33.7116H33.6145H33.5173H33.42H33.3226H33.2252H33.1277H33.03H32.9323H32.8346H32.7367H32.6387H32.5407H32.4426H32.3444H32.2461H32.1478H32.0494H31.9509H31.8523H31.7536H31.6549H31.5561H31.4572H31.3582H31.2592H31.1601H31.0609H30.9617H30.8626H30.7636H30.6646H30.5657H30.4669H30.3682H30.2695H30.1709H30.0724H29.974H29.8757H29.7774H29.6792H29.5811H29.4831H29.3851H29.2872H29.1895H29.0918H28.9941H28.8966H28.7992H28.7018H28.6045H28.5073H28.4102H28.3132H28.2162H28.1194H28.0226H27.9259H27.8293H27.7328H27.6364H27.5401H27.4439H27.3477H27.2517H27.1557H27.0599H26.9641H26.8684H26.7728H26.6774H26.582H26.4867H26.3914H26.2963H26.2013H26.1064H26.0116H25.9169H25.8222H25.7277H25.6333H25.539H25.4447H25.3506H25.2566H25.1627H25.0689H24.9751H24.8815H24.788H24.6946H24.6013H24.5081H24.415H24.322H24.2292H24.1364H24.0437H23.9512H23.8587H23.7664H23.6741H23.582H23.49H23.3981H23.3063H23.2146H23.1231H23.0316H22.9403H22.849H22.7579H22.6669H22.576H22.4853H22.3946H22.3041H22.2137H22.1234H22.0332H21.9431H21.8531H21.7633H21.6736H21.584H21.4945H21.4052H21.316H21.2268H21.1379H21.049H20.9603H20.8716H20.7832H20.6948H20.6065H20.5184H20.4304H20.3426H20.2548H20.1672H20.0798H19.9924H19.9052H19.8181H19.7311H19.6443H19.5576H19.471H19.3846H19.2983H19.2121H19.126H19.0401H18.9544H18.8687H18.7832H18.6978H18.6126H18.5275H18.4426H18.3577H18.273H18.1885H18.1041H18.0198H17.9357H17.8517H17.7679H17.6841H17.6006H17.5172H17.4339H17.3507H17.2677H17.1849H17.1022H17.0196H16.9372H16.8549H16.7728H16.6908H16.609H16.5273H16.4458H16.3644H16.2832H16.2021H16.1211H16.0404H15.9597H15.8792H15.7989H15.7187H15.6387H15.5588H15.4791H15.3995H15.3201H15.2409H15.1618H15.0828H15.004H14.9254H14.8469H14.7686H14.6905H14.6125H14.5346H14.457H14.3794H14.3021H14.2249H14.1479H14.071H13.9943H13.9177H13.8414H13.7651H13.6891H13.6132H13.5375H13.4619H13.3865H13.3113H13.2363H13.1614H13.0867H13.0121H12.9377H12.8635H12.7895H12.7156H12.6419H12.5684H12.495H12.4218H12.3488H12.276H12.2033H12.1309H12.0585H11.9864H11.9145H11.8427H11.7711H11.6996H11.6284H11.5573H11.4864H11.4157H11.3452H11.2748H11.2046H11.1346H11.0648H10.9952H10.9258H10.8565H10.7874H10.7185H10.6498H10.5813H10.5129H10.4448H10.3768H10.309H10.2414H10.174H10.1068H10.0398H9.97291H9.90626H9.8398H9.77352H9.70744H9.64155H9.57585H9.51035H9.44503H9.37991H9.31499H9.25025H9.18572H9.12137H9.05723H8.99328H8.92952H8.86597H8.80261H8.73945H8.67649H8.61372H8.55116H8.48879H8.42663H8.36467H8.30291H8.24135H8.17999H8.11883H8.05788H7.99713H7.93659H7.87625H7.81612H7.75619H7.69647H7.63695H7.57764H7.51854H7.45965H7.40096H7.34248H7.28422H7.22616H7.16831H7.11067H7.05325H6.99604H6.93903H6.88225H6.82567H6.76931H6.71316H6.65723H6.60151H6.546H6.49072H6.43565H6.38079H6.32615H6.27174H6.21753H6.16355H6.10979H6.05625H6.00292H5.94982H5.89694H5.84428H5.79184H5.73963H5.68763H5.63586H5.58432H5.533H5.4819H5.43103H5.38039H5.32997H5.27978H5.22981H5.18007H5.13056H5.08128H5.03223H4.98341H4.93482H4.88646H4.83833H4.79043H4.74276H4.69533H4.64813H4.60116H4.55442H4.50792H4.46166H4.41563H4.36983H4.32427H4.27895H4.23386H4.18902H4.14441H4.10004H4.0559H4.01201H3.96836H3.92495H3.88177H3.83884H3.79615H3.75371H3.7115H3.66954H3.62783H3.58635H3.54513H3.50414H3.46341H3.42291H3.38267H3.34267H3.30292H3.26342H3.22416H3.18516H3.1464H3.10789H3.06964H3.03163H2.99388H2.95637H2.91912H2.88213H2.84538H2.80889H2.77265H2.73667H2.70094H2.66547H2.63025H2.59529H2.56059H2.52614H2.49195H2.45802H2.42435H2.39094H2.35778H2.32489H2.29226H2.25989H2.22778H2.19593H2.16435H2.13302H2.10196H2.07117H2.04064H2.01037H1.98037H1.95064H1.92117H1.89197H1.86303H1.83436H1.80597H1.77784H1.74997H1.72238H1.69506H1.66801H1.64123H1.61472H1.58848H1.56252H1.53683H1.51141H1.48626H1.46139H1.43679H1.41247H1.38843H1.36566C1.38523 19.8994 1.40531 19.8719 1.42588 19.8438C1.83003 19.2911 2.42738 18.4998 3.19738 17.5495C4.73799 15.648 6.96655 13.1138 9.7185 10.5811C15.2402 5.49936 22.7864 0.500153 31.0609 0.500153C39.3354 0.500153 46.8816 5.49936 52.4033 10.5811C55.1552 13.1138 57.3838 15.648 58.9244 17.5495C59.6944 18.4998 60.2918 19.2911 60.6959 19.8438C60.7165 19.8719 60.7366 19.8994 60.7561 19.9263Z" fill="black" stroke="black"/>
</svg>
