<svg width="58" height="54" viewBox="0 0 58 54" fill="none" xmlns="http://www.w3.org/2000/svg">
<path d="M0.330551 30.5722C-0.25774 35.9525 -0.0949267 39.3205 2.74157 43.9552C5.24302 48.0425 8.73384 51.6558 13.4817 52.5894C24.3156 54.7196 26.9636 54.4975 36.0579 51.5101C44.9414 48.5919 55.3464 35.321 55.3464 35.321C55.3464 35.321 39.5651 43.9552 32.7702 40.5015C28.8171 38.4922 27.0023 34.0881 28.3865 29.9246C30.4476 23.7248 37.6791 21.2635 43.7295 22.8014C48.6223 24.045 55.3464 32.5148 55.3464 32.5148C55.3464 32.5148 52.6902 17.7775 43.7295 15.894C37.1844 14.5182 29.044 20.427 29.044 20.427C27.8587 20.3518 34.7917 14.2074 38.4691 12.4403C43.3272 10.1059 49.9955 11.8544 51.8395 11.3611C51.8395 11.3611 41.976 5.31714 33.8661 8.12326C27.9097 10.1843 18.3038 18.4842 18.3038 18.4842C31.1225 1.79504 40.7163 2.9214 40.8833 2.94241C40.6538 2.9131 22.6245 0.6619 11.9528 15.2464C14.7927 8.65463 18.0154 7.00893 23.7835 1C7.56369 8.12326 1.89442 16.2695 0.330551 30.5722Z" fill="#8AC0FF"/>
<path d="M24.3182 0.748338C24.9044 2.24442 22.5223 1.88148 21.0524 3.27695L20.4952 2.70445C21.5919 1.83968 23.7095 -0.805139 24.3182 0.748338Z" fill="black"/>
<path d="M41.1646 2.87622C39.7587 5.44154 35.586 3.36995 33.6812 3.75676L33.1061 2.97074C34.4437 2.78167 42.6681 0.132802 41.1646 2.87622Z" fill="black"/>
<path d="M53.2865 11.4756C51.7633 13.6145 48.8318 10.288 46.6538 10.1859L46.5813 8.94177C47.8029 9.06768 54.9036 9.20501 53.2865 11.4756Z" fill="black"/>
<path d="M55.8802 33.5687C53.4954 34.3074 53.9669 29.4583 52.2645 28.3322L53.967 27.206C54.7705 28.2864 58.3747 32.7959 55.8802 33.5687Z" fill="black"/>
<path d="M55.6266 34.8148C54.2565 32.9226 52.2645 37.4678 50.562 38.0309L51.697 39.157C52.8136 38.7033 56.9668 36.6657 55.6266 34.8148Z" fill="black"/>
</svg>
